HIERARCHY
ROOT joint_0
{
	OFFSET 0.000000 0.000000 0.000000
	CHANNELS 6 Xposition Yposition Zposition Zrotation Yrotation Xrotation 
	JOINT joint_1
	{
		OFFSET 3.886261 -0.864090 119.041016
		CHANNELS 3 Zrotation Yrotation Xrotation
		JOINT joint_2
		{
			OFFSET -8.814819 -1.400200 108.366943
			CHANNELS 3 Zrotation Yrotation Xrotation
			JOINT joint_3
			{
				OFFSET -10.127777 -1.846550 108.123047
				CHANNELS 3 Zrotation Yrotation Xrotation
				JOINT joint_4
				{
					OFFSET -0.104309 -2.852760 150.227051
					CHANNELS 3 Zrotation Yrotation Xrotation
					JOINT joint_5
					{
						OFFSET 20.206146 2.292160 92.163940
						CHANNELS 3 Zrotation Yrotation Xrotation
						End Site
						{
							OFFSET 0.000000 0.000000 0.000000
						}
					}
				}
				JOINT joint_6
				{
					OFFSET 0.345886 -34.260384 83.589966
					CHANNELS 3 Zrotation Yrotation Xrotation
					JOINT joint_7
					{
						OFFSET -3.824402 -146.174217 -19.015991
						CHANNELS 3 Zrotation Yrotation Xrotation
						JOINT joint_8
						{
							OFFSET 134.098145 -24.802032 -261.230957
							CHANNELS 3 Zrotation Yrotation Xrotation
							JOINT joint_9
							{
								OFFSET 123.899048 209.340523 59.187012
								CHANNELS 3 Zrotation Yrotation Xrotation
								End Site
								{
									OFFSET 0.000000 0.000000 0.000000
								}
							}
						}
					}
				}
				JOINT joint_10
				{
					OFFSET -0.423798 31.098438 84.831055
					CHANNELS 3 Zrotation Yrotation Xrotation
					JOINT joint_11
					{
						OFFSET 3.093201 146.891491 -12.504028
						CHANNELS 3 Zrotation Yrotation Xrotation
						JOINT joint_12
						{
							OFFSET 195.631927 -20.967743 -219.380981
							CHANNELS 3 Zrotation Yrotation Xrotation
							JOINT joint_13
							{
								OFFSET -8.651001 -247.511261 -36.616089
								CHANNELS 3 Zrotation Yrotation Xrotation
								End Site
								{
									OFFSET 0.000000 0.000000 0.000000
								}
							}
						}
					}
				}
			}
		}
	}
	JOINT joint_14
	{
		OFFSET 6.948090 -87.642914 -106.942017
		CHANNELS 3 Zrotation Yrotation Xrotation
		JOINT joint_15
		{
			OFFSET -34.394226 4.543823 -458.972961
			CHANNELS 3 Zrotation Yrotation Xrotation
			JOINT joint_16
			{
				OFFSET -17.051544 6.964645 -485.636009
				CHANNELS 3 Zrotation Yrotation Xrotation
				JOINT joint_17
				{
					OFFSET 190.520630 40.462875 -83.888000
					CHANNELS 3 Zrotation Yrotation Xrotation
					End Site
					{
						OFFSET 0.000000 0.000000 0.000000
					}
				}
			}
		}
	}
	JOINT joint_18
	{
		OFFSET 3.929901 87.535423 -107.188965
		CHANNELS 3 Zrotation Yrotation Xrotation
		JOINT joint_19
		{
			OFFSET -34.463440 -10.383845 -458.873047
			CHANNELS 3 Zrotation Yrotation Xrotation
			JOINT joint_20
			{
				OFFSET 14.641205 -11.071349 -485.637978
				CHANNELS 3 Zrotation Yrotation Xrotation
				JOINT joint_21
				{
					OFFSET 194.569275 -4.161928 -84.249998
					CHANNELS 3 Zrotation Yrotation Xrotation
					End Site
					{
						OFFSET 0.000000 0.000000 0.000000
					}
				}
			}
		}
	}
}
MOTION
Frames: 5
Frame Time: 0.016667
-503.888123 -50.644615 1157.630005 -0.652667 -1.130761 0.155276 0.766091 -5.542926 0.037772 0.830573 0.699618 0.025105 0.787144 -1.236386 -0.061468 -0.325682 5.397686 0.738632 0.000000 0.000000 0.000000 -1.506931 12.837864 1.692902 10.497942 13.484031 -2.977494 -47.409485 11.139672 -87.970241 0.000000 0.000000 0.000000 -2.385135 19.880621 -6.574298 2.313447 19.810812 18.259563 36.057729 -32.827721 51.283777 0.000000 0.000000 0.000000 -4.572073 -0.354671 -0.110120 -4.524824 1.624300 -0.442515 -4.501883 0.078681 -1.998523 0.000000 0.000000 0.000000 -1.158341 -0.571254 2.861255 -1.043968 2.611231 0.174495 -0.991303 -0.800054 -0.445399 0.000000 0.000000 0.000000 
-503.886261 -50.523750 1157.623047 -0.659235 -1.100052 0.153611 0.726278 -5.526601 0.081197 0.785565 0.702226 0.013101 0.744365 -1.233634 -0.049867 -0.321546 5.302495 0.738295 0.000000 0.000000 0.000000 -1.788191 12.837921 1.400920 10.650679 13.297520 -2.768177 -47.476278 11.052128 -88.045121 0.000000 0.000000 0.000000 -1.970222 19.845462 -6.407828 2.311078 19.704262 18.138887 36.090117 -32.836724 51.162813 0.000000 0.000000 0.000000 -4.568184 -0.379896 -0.114379 -4.521640 1.608270 -0.437179 -4.498051 0.083296 -1.997812 0.000000 0.000000 0.000000 -1.154972 -0.610487 2.850201 -1.043142 2.619600 0.185213 -0.990912 -0.787976 -0.444978 0.000000 0.000000 0.000000 
-503.904999 -50.401741 1157.608032 -0.652002 -1.070272 0.149714 0.679556 -5.509479 0.123322 0.733798 0.701445 0.000872 0.694927 -1.228914 -0.038577 -0.319871 5.212249 0.748395 0.000000 0.000000 0.000000 -2.075241 12.834374 1.088211 10.786445 13.107856 -2.539880 -47.553585 10.962233 -88.095134 0.000000 0.000000 0.000000 -1.567768 19.809573 -6.248009 2.326600 19.602618 18.030865 36.125363 -32.843201 51.041414 0.000000 0.000000 0.000000 -4.568808 -0.404367 -0.116106 -4.522779 1.593210 -0.431908 -4.498539 0.085965 -1.998590 0.000000 0.000000 0.000000 -1.156239 -0.650698 2.840336 -1.047007 2.626399 0.198153 -0.995427 -0.772809 -0.446611 0.000000 0.000000 0.000000 
-503.979156 -50.276173 1157.579956 -0.626195 -1.040144 0.140547 0.621546 -5.487284 0.164922 0.670699 0.693992 -0.012395 0.634662 -1.217093 -0.025764 -0.321012 5.127104 0.770785 0.000000 0.000000 0.000000 -2.309099 12.813164 0.749346 10.871008 12.933469 -2.285446 -47.652390 10.877199 -88.092037 0.000000 0.000000 0.000000 -1.182629 19.771297 -6.100211 2.344243 19.505298 17.940347 36.160232 -32.848116 50.940446 0.000000 0.000000 0.000000 -4.575616 -0.431722 -0.112405 -4.529735 1.580881 -0.425722 -4.504807 0.087023 -2.001571 0.000000 0.000000 0.000000 -1.163905 -0.694098 2.834037 -1.057246 2.628245 0.215216 -1.006742 -0.751288 -0.451048 0.000000 0.000000 0.000000 
-504.103149 -50.142490 1157.542969 -0.582257 -1.010063 0.127604 0.553210 -5.461050 0.206071 0.597237 0.681480 -0.026824 0.564507 -1.200889 -0.011039 -0.324288 5.047592 0.802300 0.000000 0.000000 0.000000 -2.505945 12.776684 0.382286 10.916254 12.768034 -2.003027 -47.771269 10.794405 -88.046986 0.000000 0.000000 0.000000 -0.809669 19.730595 -5.962365 2.373373 19.411869 17.864628 36.196329 -32.851020 50.847144 0.000000 0.000000 0.000000 -4.588286 -0.461314 -0.105172 -4.542321 1.571140 -0.418679 -4.516684 0.085785 -2.006533 0.000000 0.000000 0.000000 -1.177478 -0.741104 2.829724 -1.073501 2.627577 0.235681 -1.024402 -0.724476 -0.458115 0.000000 0.000000 0.000000 
